HIERARCHY
ROOT Hips
{
	OFFSET -3.958830 18.904000 13.208200
	CHANNELS 6 Xposition Yposition Zposition Zrotation Yrotation Xrotation 
	JOINT LHipJoint
	{
		OFFSET 0.000000 0.000000 0.000000
		CHANNELS 3 Zrotation Yrotation Xrotation
		JOINT LeftUpLeg
		{
			OFFSET 1.800000 -1.400000 0.085000
			CHANNELS 3 Zrotation Yrotation Xrotation
			JOINT LeftLeg
			{
				OFFSET 2.215000 -6.000000 0.000000
				CHANNELS 3 Zrotation Yrotation Xrotation
				JOINT LeftFoot
				{
					OFFSET 2.500000 -6.900000 0.000000
					CHANNELS 3 Zrotation Yrotation Xrotation
					JOINT LeftToeBase
					{
						OFFSET 0.200000 -0.500000 1.950000
						CHANNELS 3 Zrotation Yrotation Xrotation
						End Site
						{
							OFFSET 0.000000 0.000000 0.000000
						}
					}
				}
			}
		}
	}
	JOINT RHipJoint
	{
		OFFSET 0.000000 0.000000 0.000000
		CHANNELS 3 Zrotation Yrotation Xrotation
		JOINT RightUpLeg
		{
			OFFSET -1.800000 -1.400000 0.085000
			CHANNELS 3 Zrotation Yrotation Xrotation
			JOINT RightLeg
			{
				OFFSET -2.215000 -6.000000 0.000000
				CHANNELS 3 Zrotation Yrotation Xrotation
				JOINT RightFoot
				{
					OFFSET -2.500000 -6.900000 0.000000
					CHANNELS 3 Zrotation Yrotation Xrotation
					JOINT RightToeBase
					{
						OFFSET -0.200000 -0.500000 1.950000
						CHANNELS 3 Zrotation Yrotation Xrotation
						End Site
						{
							OFFSET 0.000000 0.000000 0.000000
						}
					}
				}
			}
		}
	}
	JOINT LowerBack
	{
		OFFSET 0.000000 0.000000 0.000000
		CHANNELS 3 Zrotation Yrotation Xrotation
		JOINT Spine
		{
			OFFSET -0.087000 1.940000 -0.288900
			CHANNELS 3 Zrotation Yrotation Xrotation
			JOINT Spine1
			{
				OFFSET 0.000000 1.950000 0.060000
				CHANNELS 3 Zrotation Yrotation Xrotation
				JOINT Neck
				{
					OFFSET 0.000000 0.000000 0.000000
					CHANNELS 3 Zrotation Yrotation Xrotation
					JOINT Neck1
					{
						OFFSET 0.000000 1.600000 0.340000
						CHANNELS 3 Zrotation Yrotation Xrotation
						JOINT Head
						{
							OFFSET 0.000000 1.667000 -0.240000
							CHANNELS 3 Zrotation Yrotation Xrotation
							End Site
							{
								OFFSET 0.000000 0.000000 0.000000
							}
						}
					}
				}
				JOINT LeftShoulder
				{
					OFFSET 0.000000 0.000000 0.000000
					CHANNELS 3 Zrotation Yrotation Xrotation
					JOINT LeftArm
					{
						OFFSET 2.700000 1.550000 -0.730000
						CHANNELS 3 Zrotation Yrotation Xrotation
						JOINT LeftForeArm
						{
							OFFSET 5.450000 0.000000 0.000000
							CHANNELS 3 Zrotation Yrotation Xrotation
							JOINT LeftHand
							{
								OFFSET 3.450000 0.000000 0.000000
								CHANNELS 3 Zrotation Yrotation Xrotation
								JOINT LeftHandIndex1
								{
									OFFSET 0.750000 0.000000 0.000000
									CHANNELS 3 Zrotation Yrotation Xrotation
									End Site
									{
										OFFSET 0.000000 0.000000 0.000000
									}
								}
							}
						}
					}
				}
				JOINT RightShoulder
				{
					OFFSET 0.000000 0.000000 0.000000
					CHANNELS 3 Zrotation Yrotation Xrotation
					JOINT RightArm
					{
						OFFSET -2.700000 1.550000 -0.730000
						CHANNELS 3 Zrotation Yrotation Xrotation
						JOINT RightForeArm
						{
							OFFSET -5.450000 0.000000 0.000000
							CHANNELS 3 Zrotation Yrotation Xrotation
							JOINT RightHand
							{
								OFFSET -3.450000 0.000000 0.000000
								CHANNELS 3 Zrotation Yrotation Xrotation
								JOINT RightHandIndex1
								{
									OFFSET -0.750000 0.000000 0.000000
									CHANNELS 3 Zrotation Yrotation Xrotation
									End Site
									{
										OFFSET 0.000000 0.000000 0.000000
									}
								}
							}
						}
					}
				}
			}
		}
	}
}
MOTION
Frames: 10
Frame Time: 0.016667
-0.538340 16.857520 -0.978800 -3.148934 -8.747647 4.476114 -14.900663 12.921005 2.428296 11.851805 -0.448019 -8.972980 -7.992209 6.159509 9.384774 -0.109159 4.602554 3.308791 -0.180980 -0.469350 -0.220140 18.528875 -11.268974 2.572487 -9.567178 0.365590 -10.085396 10.512555 -5.953748 10.718921 0.117137 -4.326750 3.164937 -0.138840 0.772360 0.143990 -4.251572 -0.243467 -6.421388 10.439829 2.490921 -0.789130 -4.661269 1.966792 4.738197 1.932502 -2.450108 -6.548834 -4.632342 3.943735 28.241333 -2.405240 3.380070 11.367690 -24.018205 -3.796780 1.954855 -55.594373 -5.210342 -0.904854 -11.112452 -10.801213 -0.112189 -4.304102 3.015335 -0.116400 0.588110 -0.572190 0.188270 20.054380 5.963262 3.753643 60.952338 3.947853 -4.204098 10.716276 14.770945 -0.508093 2.375370 -1.536081 -0.312640 0.118000 0.167930 -0.001980 
-0.538200 16.856950 -0.976140 -3.232949 -8.649962 4.470087 -14.900456 12.917103 2.429435 11.945110 -0.455618 -8.971467 -7.979603 6.144864 9.307089 -0.110303 4.607249 3.310656 -0.182670 -0.477370 -0.213760 18.529661 -11.268945 2.572251 -9.494160 0.362467 -10.038894 10.548838 -5.980202 10.773046 0.114848 -4.337914 3.161951 -0.143520 0.772200 0.148290 -4.253563 -0.237726 -6.423833 10.530127 2.516487 -0.813260 -4.657891 1.980469 4.777726 2.000910 -2.385761 -6.604937 -4.516980 3.860049 28.201467 -2.691740 3.539190 11.488050 -23.966085 -3.935132 1.984338 -55.745367 -5.323246 -0.831909 -10.883009 -10.616607 -0.134101 -4.309056 3.013630 -0.114230 0.592120 -0.572430 0.187850 19.871453 6.043110 3.831330 61.111630 3.876102 -4.283103 10.664788 14.875314 -0.519718 2.372931 -1.540039 -0.314760 0.113700 0.166070 -0.006390 
-0.542690 16.855480 -0.976240 -3.118772 -8.693272 4.453809 -14.909920 12.926048 2.431422 11.869567 -0.443010 -8.971550 -7.990149 6.152489 9.326114 -0.104356 4.607298 3.312957 -0.190550 -0.478820 -0.229580 18.519532 -11.269736 2.562688 -9.563219 0.380585 -10.144763 10.527864 -6.004455 10.979500 0.122726 -4.346914 3.159902 -0.143480 0.782800 0.148200 -4.224173 -0.255069 -6.417372 10.199725 2.603692 -0.827272 -4.515874 2.077398 4.839790 1.967904 -2.329715 -6.655795 -4.404319 3.898851 28.036183 -2.547610 3.524510 11.657190 -23.814721 -4.088843 2.025171 -55.811652 -5.521092 -0.704094 -10.760325 -10.412537 -0.135637 -4.317669 3.019534 -0.125470 0.599820 -0.579950 0.190830 19.823580 6.190497 3.887944 61.223381 3.886209 -4.317423 10.511230 14.996405 -0.547005 2.370916 -1.546224 -0.314320 0.113210 0.169810 0.000950 
-0.546270 16.857220 -0.978950 -2.988918 -8.780718 4.427458 -14.917862 12.928302 2.439811 11.833711 -0.425953 -8.997715 -8.162075 6.209792 9.388443 -0.092106 4.620617 3.308429 -0.190330 -0.475090 -0.231820 18.509849 -11.265080 2.558859 -9.716407 0.401043 -10.219578 10.615494 -6.037297 11.095203 0.122532 -4.351817 3.159109 -0.144620 0.783460 0.146670 -4.197787 -0.270979 -6.423230 9.872312 2.711585 -0.799433 -4.360788 2.206537 4.893639 1.916294 -2.334869 -6.743956 -4.438115 3.903035 28.114023 -2.399780 3.442110 11.664900 -23.735877 -4.334982 2.109649 -55.853678 -5.642126 -0.625297 -10.705805 -10.269122 -0.133765 -4.315665 3.018686 -0.128510 0.597900 -0.577710 0.192850 19.878531 6.507322 3.991416 61.166536 3.921765 -4.299152 10.376934 14.939898 -0.556621 2.373595 -1.544314 -0.310220 0.115530 0.167850 0.005500 
-0.550650 16.858070 -0.981930 -2.799291 -8.817017 4.358398 -14.928761 12.946906 2.443116 11.712348 -0.415577 -9.040446 -8.190990 6.236831 9.524698 -0.092780 4.619519 3.305236 -0.180790 -0.461910 -0.229790 18.496977 -11.259491 2.550873 -9.877517 0.406133 -10.256472 10.590678 -6.046090 11.189947 0.118404 -4.347073 3.158802 -0.138430 0.779570 0.145540 -4.162320 -0.318074 -6.421653 9.477409 2.703006 -0.753455 -4.190680 2.223249 4.924610 1.818640 -2.409030 -6.750517 -4.606448 4.065661 28.286918 -2.145650 3.403430 11.440260 -23.577749 -4.361275 2.129714 -55.956875 -5.749996 -0.546609 -10.587032 -10.129308 -0.147514 -4.309641 3.015989 -0.122330 0.590830 -0.570450 0.196500 19.943715 6.629411 3.960682 61.151583 4.149426 -4.139274 10.283078 14.662279 -0.552318 2.375857 -1.539779 -0.307480 0.120180 0.164520 0.007220 
-0.552990 16.856680 -0.980770 -2.723077 -8.882444 4.315696 -14.932552 12.962857 2.434928 11.615516 -0.400729 -9.060562 -8.113774 6.256669 9.727575 -0.087717 4.613213 3.309038 -0.177080 -0.453270 -0.233310 18.491835 -11.262193 2.549919 -9.938215 0.398471 -10.237237 10.540545 -6.033776 11.176654 0.117789 -4.343950 3.166053 -0.136280 0.783210 0.143970 -4.148012 -0.337509 -6.414653 9.301283 2.682443 -0.753763 -4.158362 2.213228 4.940735 1.781638 -2.463181 -6.757682 -4.706910 4.200510 28.335685 -1.984990 3.415050 11.423570 -23.353157 -4.299191 2.130226 -56.104158 -5.785529 -0.479690 -10.521293 -9.846823 -0.155778 -4.310165 3.012712 -0.124830 0.591210 -0.569030 0.202780 19.806583 6.623082 3.935116 61.262375 4.286480 -4.060532 10.459221 14.598077 -0.532947 2.376973 -1.539900 -0.304370 0.124550 0.160420 0.012510 
-0.553470 16.855750 -0.980440 -2.701418 -8.883090 4.337005 -14.932127 12.970208 2.423369 11.583196 -0.404276 -9.240777 -8.090647 6.306486 10.046604 -0.076886 4.615429 3.311595 -0.175190 -0.448350 -0.243530 18.491981 -11.256137 2.558736 -9.991137 0.392011 -10.175992 10.600597 -6.005969 10.985366 0.117594 -4.347065 3.168611 -0.135160 0.794140 0.143100 -4.149127 -0.355732 -6.411135 9.268303 2.656675 -0.760370 -4.171054 2.200493 4.949119 1.686059 -2.603567 -6.783273 -4.946877 4.326274 28.211023 -1.584980 3.187250 11.572750 -23.199987 -4.326843 2.146260 -56.204250 -5.823553 -0.386381 -10.446812 -9.384610 -0.168722 -4.310674 3.020554 -0.134270 0.591760 -0.573770 0.212900 19.841952 6.751309 3.964226 61.219769 4.295995 -4.059480 10.421720 14.560285 -0.544316 2.381590 -1.547139 -0.300380 0.127290 0.156780 0.023940 
-0.555080 16.855980 -0.978400 -2.665030 -9.002563 4.328577 -14.931930 12.971659 2.421052 11.553693 -0.386277 -9.216355 -8.102854 6.327209 10.120617 -0.063886 4.614186 3.311633 -0.174610 -0.444530 -0.249290 18.490593 -11.262956 2.557483 -10.072928 0.415502 -10.258381 10.658956 -6.037288 11.137228 0.119285 -4.361491 3.161656 -0.136340 0.794100 0.146950 -4.146318 -0.343075 -6.408168 9.178357 2.732081 -0.772717 -4.182526 2.281693 4.914313 1.692450 -2.612579 -6.800031 -4.949473 4.333123 28.167241 -1.550410 3.180080 11.789280 -23.314862 -4.423805 2.151344 -55.997199 -5.765166 -0.301666 -10.183238 -8.659164 -0.193143 -4.313647 3.032120 -0.144200 0.593600 -0.575110 0.216660 19.948823 6.891286 4.009941 61.123249 4.240386 -4.046818 10.460230 14.409271 -0.548310 2.387746 -1.558968 -0.292390 0.116860 0.152630 0.030280 
-0.554020 16.855740 -0.976560 -2.694756 -8.967547 4.334546 -14.931522 12.973916 2.419415 11.585694 -0.389825 -9.261350 -8.075078 6.335112 10.197006 -0.059293 4.613918 3.308481 -0.174490 -0.451210 -0.239800 18.489041 -11.268199 2.559473 -10.084558 0.432943 -10.302026 10.702971 -6.064806 11.228038 0.118890 -4.367811 3.155921 -0.144530 0.785570 0.155190 -4.144143 -0.334103 -6.411980 9.181028 2.783459 -0.761241 -4.083405 2.324317 4.902753 1.712088 -2.580589 -6.857176 -4.900196 4.155675 28.164093 -1.872540 3.243220 11.902650 -23.350728 -4.566868 2.204923 -56.068675 -5.701283 -0.320020 -10.018948 -8.437578 -0.210194 -4.316525 3.038594 -0.145500 0.594030 -0.572720 0.211050 19.953012 7.041843 4.085744 61.121594 4.115541 -4.129116 10.220316 14.328333 -0.573342 2.390901 -1.563587 -0.285070 0.102970 0.151310 0.026130 
-0.554210 16.856910 -0.975140 -2.669625 -8.975723 4.355634 -14.932501 12.975868 2.419203 11.550028 -0.394037 -9.256489 -8.050331 6.320121 10.164372 -0.071899 4.616333 3.311457 -0.175740 -0.456870 -0.243530 18.489343 -11.260979 2.561312 -10.058526 0.428118 -10.253840 10.648604 -6.021563 11.086211 0.121511 -4.358522 3.158860 -0.140780 0.791070 0.147850 -4.143538 -0.351499 -6.410679 9.164194 2.790677 -0.770119 -4.043298 2.344732 4.910274 1.618127 -2.738523 -6.872647 -5.178749 4.211592 28.054851 -1.695920 3.073790 11.870640 -23.315065 -4.552224 2.223575 -56.113211 -5.593100 -0.413521 -10.093555 -8.641321 -0.217545 -4.310642 3.035653 -0.137690 0.590900 -0.578690 0.213200 20.100793 7.147514 4.114722 60.986545 4.033907 -4.151757 10.148043 14.168031 -0.584025 2.388599 -1.561089 -0.297360 0.111890 0.154520 0.023710 
